NotoSansLisu-Regular.ufo
<glyph name="uni02BC" format="2">
  <advance width="271"/>
  <unicode hex="02BC"/>
  <note>
afii57929
</note>
  <outline>
    <contour>
      <point x="63" y="450" type="line"/>
      <point x="148" y="465"/>
      <point x="200" y="549"/>
      <point x="200" y="658" type="curve" smooth="yes"/>
      <point x="200" y="701"/>
      <point x="175" y="725"/>
      <point x="134" y="725" type="curve" smooth="yes"/>
      <point x="95" y="725"/>
      <point x="73" y="701"/>
      <point x="73" y="658" type="curve" smooth="yes"/>
      <point x="73" y="615"/>
      <point x="96" y="590"/>
      <point x="134" y="590" type="curve"/>
      <point x="142" y="590" type="line"/>
      <point x="131" y="543"/>
      <point x="105" y="512"/>
      <point x="63" y="497" type="curve"/>
    </contour>
  </outline>
</glyph>
<glyph name="uni02CD" format="2">
  <advance width="473"/>
  <unicode hex="02CD"/>
  <note>
uni02CD
</note>
  <outline>
    <contour>
      <point x="73" y="0" type="line"/>
      <point x="399" y="0" type="line"/>
      <point x="399" y="85" type="line"/>
      <point x="73" y="85" type="line"/>
    </contour>
  </outline>
</glyph>
<glyph name="uni300A" format="2">
  <advance width="457"/>
  <unicode hex="300A"/>
  <outline>
    <contour>
      <point x="352" y="0" type="line"/>
      <point x="442" y="0" type="line"/>
      <point x="262" y="357" type="line"/>
      <point x="442" y="714" type="line"/>
      <point x="352" y="714" type="line"/>
      <point x="169" y="356" type="line"/>
    </contour>
    <contour>
      <point x="198" y="0" type="line"/>
      <point x="288" y="0" type="line"/>
      <point x="108" y="357" type="line"/>
      <point x="288" y="714" type="line"/>
      <point x="198" y="714" type="line"/>
      <point x="15" y="356" type="line"/>
    </contour>
  </outline>
</glyph>
<glyph name="uni300B" format="2">
  <advance width="457"/>
  <unicode hex="300B"/>
  <outline>
    <contour>
      <point x="169" y="0" type="line"/>
      <point x="259" y="0" type="line"/>
      <point x="442" y="356" type="line"/>
      <point x="259" y="714" type="line"/>
      <point x="169" y="714" type="line"/>
      <point x="349" y="357" type="line"/>
    </contour>
    <contour>
      <point x="15" y="0" type="line"/>
      <point x="104" y="0" type="line"/>
      <point x="288" y="356" type="line"/>
      <point x="104" y="714" type="line"/>
      <point x="15" y="714" type="line"/>
      <point x="194" y="357" type="line"/>
    </contour>
  </outline>
</glyph>
<glyph name="uniA4D2" format="2">
  <advance width="605"/>
  <unicode hex="A4D2"/>
  <outline>
    <contour>
      <point x="319" y="0" type="curve" smooth="yes"/>
      <point x="508" y="0" type="line"/>
      <point x="508" y="714" type="line"/>
      <point x="418" y="714" type="line"/>
      <point x="418" y="436" type="line"/>
      <point x="336" y="436" type="line" smooth="yes"/>
      <point x="122" y="436"/>
      <point x="51" y="328"/>
      <point x="51" y="210" type="curve" smooth="yes"/>
      <point x="51" y="77"/>
      <point x="132" y="0"/>
    </contour>
    <contour>
      <point x="327" y="77" type="line" smooth="yes"/>
      <point x="201" y="77"/>
      <point x="144" y="122"/>
      <point x="144" y="214" type="curve" smooth="yes"/>
      <point x="144" y="319"/>
      <point x="210" y="359"/>
      <point x="346" y="359" type="curve" smooth="yes"/>
      <point x="418" y="359" type="line"/>
      <point x="418" y="77" type="line"/>
    </contour>
  </outline>
</glyph>
<glyph name="uniA4D4" format="2">
  <advance width="556"/>
  <unicode hex="A4D4"/>
  <outline>
    <contour>
      <point x="233" y="0" type="line"/>
      <point x="323" y="0" type="line"/>
      <point x="323" y="635" type="line"/>
      <point x="545" y="635" type="line"/>
      <point x="545" y="714" type="line"/>
      <point x="10" y="714" type="line"/>
      <point x="10" y="635" type="line"/>
      <point x="233" y="635" type="line"/>
    </contour>
  </outline>
</glyph>
<glyph name="uniA4D5" format="2">
  <advance width="556"/>
  <unicode hex="A4D5"/>
  <outline>
    <contour>
      <point x="10" y="0" type="line"/>
      <point x="545" y="0" type="line"/>
      <point x="545" y="79" type="line"/>
      <point x="323" y="79" type="line"/>
      <point x="323" y="714" type="line"/>
      <point x="233" y="714" type="line"/>
      <point x="233" y="79" type="line"/>
      <point x="10" y="79" type="line"/>
    </contour>
  </outline>
</glyph>
<glyph name="uniA4D8" format="2">
  <advance width="619"/>
  <unicode hex="A4D8"/>
  <outline>
    <contour>
      <point x="11" y="0" type="line"/>
      <point x="116" y="0" type="line"/>
      <point x="309" y="216" type="line" smooth="yes"/>
      <point x="350" y="262"/>
      <point x="392" y="307"/>
      <point x="432" y="352" type="curve"/>
      <point x="432" y="0" type="line"/>
      <point x="522" y="0" type="line"/>
      <point x="522" y="714" type="line"/>
      <point x="432" y="714" type="line"/>
      <point x="432" y="437" type="line"/>
      <point x="359" y="373" type="line"/>
      <point x="106" y="714" type="line"/>
      <point x="0" y="714" type="line"/>
      <point x="294" y="311" type="line"/>
    </contour>
  </outline>
</glyph>
<glyph name="uniA4D9" format="2">
  <advance width="371"/>
  <unicode hex="A4D9"/>
  <outline>
    <contour>
      <point x="94" y="-10" type="curve" smooth="yes"/>
      <point x="206" y="-10"/>
      <point x="280" y="53"/>
      <point x="280" y="191" type="curve" smooth="yes"/>
      <point x="280" y="714" type="line"/>
      <point x="189" y="714" type="line"/>
      <point x="189" y="184" type="line" smooth="yes"/>
      <point x="189" y="93"/>
      <point x="142" y="69"/>
      <point x="92" y="69" type="curve" smooth="yes"/>
      <point x="64" y="69"/>
      <point x="41" y="73"/>
      <point x="20" y="79" type="curve"/>
      <point x="20" y="3" type="line"/>
      <point x="38" y="-5"/>
      <point x="62" y="-10"/>
    </contour>
  </outline>
</glyph>
<glyph name="uniA4DB" format="2">
  <advance width="632"/>
  <unicode hex="A4DB"/>
  <outline>
    <contour>
      <point x="31" y="32" type="line"/>
      <point x="85" y="5"/>
      <point x="155" y="-10"/>
      <point x="228" y="-10" type="curve" smooth="yes"/>
      <point x="449" y="-10"/>
      <point x="571" y="140"/>
      <point x="571" y="356" type="curve" smooth="yes"/>
      <point x="571" y="582"/>
      <point x="462" y="724"/>
      <point x="243" y="724" type="curve" smooth="yes"/>
      <point x="164" y="724"/>
      <point x="112" y="715"/>
      <point x="59" y="695" type="curve"/>
      <point x="59" y="617" type="line"/>
      <point x="113" y="633"/>
      <point x="168" y="646"/>
      <point x="230" y="646" type="curve" smooth="yes"/>
      <point x="394" y="646"/>
      <point x="476" y="534"/>
      <point x="476" y="357" type="curve" smooth="yes"/>
      <point x="476" y="178"/>
      <point x="382" y="69"/>
      <point x="229" y="69" type="curve" smooth="yes"/>
      <point x="165" y="69"/>
      <point x="111" y="88"/>
      <point x="67" y="108" type="curve"/>
    </contour>
  </outline>
</glyph>
<glyph name="uniA4DD" format="2">
  <advance width="519"/>
  <unicode hex="A4DD"/>
  <outline>
    <contour>
      <point x="97" y="0" type="line"/>
      <point x="187" y="0" type="line"/>
      <point x="187" y="303" type="line"/>
      <point x="477" y="303" type="line"/>
      <point x="477" y="382" type="line"/>
      <point x="187" y="382" type="line"/>
      <point x="187" y="635" type="line"/>
      <point x="496" y="635" type="line"/>
      <point x="496" y="714" type="line"/>
      <point x="97" y="714" type="line"/>
    </contour>
  </outline>
</glyph>
<glyph name="uniA4DE" format="2">
  <advance width="519"/>
  <unicode hex="A4DE"/>
  <outline>
    <contour>
      <point x="23" y="0" type="line"/>
      <point x="422" y="0" type="line"/>
      <point x="422" y="714" type="line"/>
      <point x="332" y="714" type="line"/>
      <point x="332" y="411" type="line"/>
      <point x="42" y="411" type="line"/>
      <point x="42" y="332" type="line"/>
      <point x="332" y="332" type="line"/>
      <point x="332" y="79" type="line"/>
      <point x="23" y="79" type="line"/>
    </contour>
  </outline>
</glyph>
<glyph name="uniA4E0" format="2">
  <advance width="760"/>
  <unicode hex="A4E0"/>
  <outline>
    <contour>
      <point x="97" y="0" type="line"/>
      <point x="180" y="0" type="line"/>
      <point x="180" y="399" type="line" smooth="yes"/>
      <point x="180" y="472"/>
      <point x="175" y="546"/>
      <point x="172" y="593" type="curve"/>
      <point x="176" y="593" type="line"/>
      <point x="558" y="0" type="line"/>
      <point x="663" y="0" type="line"/>
      <point x="663" y="714" type="line"/>
      <point x="579" y="714" type="line"/>
      <point x="579" y="311" type="line" smooth="yes"/>
      <point x="579" y="246"/>
      <point x="584" y="155"/>
      <point x="586" y="123" type="curve"/>
      <point x="582" y="123" type="line"/>
      <point x="559" y="161"/>
      <point x="224" y="676"/>
      <point x="201" y="714" type="curve"/>
      <point x="97" y="714" type="line"/>
    </contour>
  </outline>
</glyph>
<glyph name="uniA4E1" format="2">
  <advance width="524"/>
  <unicode hex="A4E1"/>
  <outline>
    <contour>
      <point x="97" y="0" type="line"/>
      <point x="499" y="0" type="line"/>
      <point x="499" y="80" type="line"/>
      <point x="187" y="80" type="line"/>
      <point x="187" y="714" type="line"/>
      <point x="97" y="714" type="line"/>
    </contour>
  </outline>
</glyph>
<glyph name="uniA4E3" format="2">
  <advance width="622"/>
  <unicode hex="A4E3"/>
  <outline>
    <contour>
      <point x="97" y="0" type="line"/>
      <point x="187" y="0" type="line"/>
      <point x="187" y="295" type="line"/>
      <point x="329" y="295" type="line"/>
      <point x="502" y="0" type="line"/>
      <point x="607" y="0" type="line"/>
      <point x="600" y="11"/>
      <point x="418" y="309"/>
      <point x="411" y="320" type="curve"/>
      <point x="483" y="345"/>
      <point x="554" y="397"/>
      <point x="554" y="511" type="curve" smooth="yes"/>
      <point x="554" y="647"/>
      <point x="471" y="714"/>
      <point x="294" y="714" type="curve" smooth="yes"/>
      <point x="97" y="714" type="line"/>
    </contour>
    <contour>
      <point x="294" y="371" type="curve" smooth="yes"/>
      <point x="187" y="371" type="line"/>
      <point x="187" y="636" type="line"/>
      <point x="289" y="636" type="line" smooth="yes"/>
      <point x="406" y="636"/>
      <point x="461" y="600"/>
      <point x="461" y="507" type="curve" smooth="yes"/>
      <point x="461" y="417"/>
      <point x="410" y="371"/>
    </contour>
  </outline>
</glyph>
<glyph name="uniA4E4" format="2">
  <advance width="622"/>
  <unicode hex="A4E4"/>
  <outline>
    <contour>
      <point x="328" y="0" type="curve" smooth="yes"/>
      <point x="525" y="0" type="line"/>
      <point x="525" y="714" type="line"/>
      <point x="435" y="714" type="line"/>
      <point x="435" y="419" type="line"/>
      <point x="293" y="419" type="line"/>
      <point x="120" y="714" type="line"/>
      <point x="15" y="714" type="line"/>
      <point x="22" y="703"/>
      <point x="204" y="405"/>
      <point x="211" y="394" type="curve"/>
      <point x="139" y="369"/>
      <point x="68" y="317"/>
      <point x="68" y="203" type="curve" smooth="yes"/>
      <point x="68" y="67"/>
      <point x="151" y="0"/>
    </contour>
    <contour>
      <point x="333" y="78" type="line" smooth="yes"/>
      <point x="216" y="78"/>
      <point x="161" y="114"/>
      <point x="161" y="207" type="curve" smooth="yes"/>
      <point x="161" y="297"/>
      <point x="212" y="343"/>
      <point x="328" y="343" type="curve" smooth="yes"/>
      <point x="435" y="343" type="line"/>
      <point x="435" y="78" type="line"/>
    </contour>
  </outline>
</glyph>
<glyph name="uniA4E7" format="2">
  <advance width="741"/>
  <unicode hex="A4E7"/>
  <outline>
    <contour>
      <point x="97" y="0" type="line"/>
      <point x="187" y="0" type="line"/>
      <point x="187" y="333" type="line"/>
      <point x="553" y="333" type="line"/>
      <point x="553" y="0" type="line"/>
      <point x="643" y="0" type="line"/>
      <point x="643" y="714" type="line"/>
      <point x="553" y="714" type="line"/>
      <point x="553" y="412" type="line"/>
      <point x="187" y="412" type="line"/>
      <point x="187" y="714" type="line"/>
      <point x="97" y="714" type="line"/>
    </contour>
  </outline>
</glyph>
<glyph name="uniA4E8" format="2">
  <advance width="728"/>
  <unicode hex="A4E8"/>
  <outline>
    <contour>
      <point x="84" y="32" type="line"/>
      <point x="145" y="6"/>
      <point x="217" y="-10"/>
      <point x="297" y="-10" type="curve" smooth="yes"/>
      <point x="531" y="-10"/>
      <point x="667" y="134"/>
      <point x="667" y="357" type="curve" smooth="yes"/>
      <point x="667" y="583"/>
      <point x="547" y="724"/>
      <point x="325" y="724" type="curve" smooth="yes"/>
      <point x="225" y="724"/>
      <point x="151" y="712"/>
      <point x="74" y="687" type="curve"/>
      <point x="74" y="337" type="line"/>
      <point x="321" y="337" type="line"/>
      <point x="321" y="417" type="line"/>
      <point x="164" y="417" type="line"/>
      <point x="164" y="629" type="line"/>
      <point x="200" y="638"/>
      <point x="241" y="646"/>
      <point x="304" y="646" type="curve" smooth="yes"/>
      <point x="496" y="646"/>
      <point x="573" y="528"/>
      <point x="573" y="357" type="curve" smooth="yes"/>
      <point x="573" y="179"/>
      <point x="473" y="69"/>
      <point x="302" y="69" type="curve" smooth="yes"/>
      <point x="234" y="69"/>
      <point x="169" y="88"/>
      <point x="118" y="110" type="curve"/>
    </contour>
  </outline>
</glyph>
<glyph name="uniA4E9" format="2">
  <advance width="371"/>
  <unicode hex="A4E9"/>
  <outline>
    <contour>
      <point x="91" y="0" type="line"/>
      <point x="181" y="0" type="line"/>
      <point x="181" y="530" type="line" smooth="yes"/>
      <point x="181" y="621"/>
      <point x="229" y="645"/>
      <point x="279" y="645" type="curve" smooth="yes"/>
      <point x="306" y="645"/>
      <point x="330" y="641"/>
      <point x="351" y="635" type="curve"/>
      <point x="351" y="710" type="line"/>
      <point x="333" y="719"/>
      <point x="309" y="724"/>
      <point x="277" y="724" type="curve" smooth="yes"/>
      <point x="165" y="724"/>
      <point x="91" y="661"/>
      <point x="91" y="522" type="curve" smooth="yes"/>
    </contour>
  </outline>
</glyph>
<glyph name="uniA4EA" format="2">
  <advance width="930"/>
  <unicode hex="A4EA"/>
  <outline>
    <contour>
      <point x="201" y="0" type="curve"/>
      <point x="292" y="0" type="line"/>
      <point x="427" y="465" type="line" smooth="yes"/>
      <point x="445" y="526"/>
      <point x="459" y="591"/>
      <point x="461" y="609" type="curve"/>
      <point x="464" y="591"/>
      <point x="480" y="525"/>
      <point x="497" y="468" type="curve" smooth="yes"/>
      <point x="636" y="0" type="line"/>
      <point x="727" y="0" type="line"/>
      <point x="917" y="714" type="line"/>
      <point x="823" y="714" type="line"/>
      <point x="713" y="279" type="line" smooth="yes"/>
      <point x="697" y="216"/>
      <point x="684" y="157"/>
      <point x="678" y="108" type="curve"/>
      <point x="671" y="154"/>
      <point x="658" y="218"/>
      <point x="639" y="280" type="curve" smooth="yes"/>
      <point x="508" y="714" type="line"/>
      <point x="415" y="714" type="line"/>
      <point x="289" y="283" type="line" smooth="yes"/>
      <point x="272" y="224"/>
      <point x="258" y="160"/>
      <point x="251" y="108" type="curve"/>
      <point x="244" y="158"/>
      <point x="233" y="216"/>
      <point x="217" y="278" type="curve" smooth="yes"/>
      <point x="106" y="714" type="line"/>
      <point x="12" y="714" type="line"/>
      <point x="69" y="500"/>
      <point x="144" y="214"/>
    </contour>
  </outline>
</glyph>
<glyph name="uniA4EC" format="2">
  <advance width="566"/>
  <unicode hex="A4EC"/>
  <outline>
    <contour>
      <point x="238" y="0" type="line"/>
      <point x="328" y="0" type="line"/>
      <point x="328" y="277" type="line"/>
      <point x="566" y="714" type="line"/>
      <point x="469" y="714" type="line"/>
      <point x="283" y="363" type="line"/>
      <point x="98" y="714" type="line"/>
      <point x="0" y="714" type="line"/>
      <point x="238" y="273" type="line"/>
    </contour>
  </outline>
</glyph>
<glyph name="uniA4ED" format="2">
  <advance width="650"/>
  <unicode hex="A4ED"/>
  <outline>
    <contour>
      <point x="302" y="0" type="curve" smooth="yes"/>
      <point x="553" y="0" type="line"/>
      <point x="553" y="714" type="line"/>
      <point x="349" y="714" type="line" smooth="yes"/>
      <point x="171" y="714"/>
      <point x="78" y="667"/>
      <point x="78" y="537" type="curve" smooth="yes"/>
      <point x="78" y="453"/>
      <point x="126" y="395"/>
      <point x="214" y="379" type="curve"/>
      <point x="214" y="374" type="line"/>
      <point x="124" y="359"/>
      <point x="54" y="314"/>
      <point x="54" y="203" type="curve" smooth="yes"/>
      <point x="54" y="73"/>
      <point x="149" y="0"/>
    </contour>
    <contour>
      <point x="319" y="76" type="line" smooth="yes"/>
      <point x="193" y="76"/>
      <point x="150" y="130"/>
      <point x="150" y="210" type="curve" smooth="yes"/>
      <point x="150" y="285"/>
      <point x="194" y="335"/>
      <point x="326" y="335" type="curve"/>
      <point x="463" y="335" type="line"/>
      <point x="463" y="76" type="line"/>
    </contour>
    <contour>
      <point x="331" y="410" type="line" smooth="yes"/>
      <point x="209" y="410"/>
      <point x="171" y="450"/>
      <point x="171" y="527" type="curve" smooth="yes"/>
      <point x="171" y="605"/>
      <point x="224" y="637"/>
      <point x="345" y="637" type="curve" smooth="yes"/>
      <point x="463" y="637" type="line"/>
      <point x="463" y="410" type="line"/>
    </contour>
  </outline>
</glyph>
<glyph name="uniA4EF" format="2">
  <advance width="639"/>
  <unicode hex="A4EF"/>
  <outline>
    <contour>
      <point x="278" y="0" type="line"/>
      <point x="359" y="0" type="line"/>
      <point x="638" y="717" type="line"/>
      <point x="547" y="717" type="line"/>
      <point x="462" y="496" type="line"/>
      <point x="179" y="496" type="line"/>
      <point x="93" y="717" type="line"/>
      <point x="0" y="717" type="line"/>
    </contour>
    <contour>
      <point x="320" y="93" type="curve"/>
      <point x="313" y="118"/>
      <point x="292" y="184"/>
      <point x="286" y="200" type="curve" smooth="yes"/>
      <point x="206" y="416" type="line"/>
      <point x="432" y="416" type="line"/>
      <point x="351" y="200" type="line" smooth="yes"/>
      <point x="342" y="177"/>
      <point x="330" y="134"/>
    </contour>
  </outline>
</glyph>
<glyph name="uniA4F0" format="2">
  <advance width="556"/>
  <unicode hex="A4F0"/>
  <outline>
    <contour>
      <point x="97" y="0" type="line"/>
      <point x="496" y="0" type="line"/>
      <point x="496" y="79" type="line"/>
      <point x="187" y="79" type="line"/>
      <point x="187" y="334" type="line"/>
      <point x="478" y="334" type="line"/>
      <point x="478" y="412" type="line"/>
      <point x="187" y="412" type="line"/>
      <point x="187" y="635" type="line"/>
      <point x="496" y="635" type="line"/>
      <point x="496" y="714" type="line"/>
      <point x="97" y="714" type="line"/>
    </contour>
  </outline>
</glyph>
<glyph name="uniA4F1" format="2">
  <advance width="556"/>
  <unicode hex="A4F1"/>
  <outline>
    <contour>
      <point x="60" y="0" type="line"/>
      <point x="459" y="0" type="line"/>
      <point x="459" y="714" type="line"/>
      <point x="60" y="714" type="line"/>
      <point x="60" y="635" type="line"/>
      <point x="369" y="635" type="line"/>
      <point x="369" y="412" type="line"/>
      <point x="78" y="412" type="line"/>
      <point x="78" y="334" type="line"/>
      <point x="369" y="334" type="line"/>
      <point x="369" y="79" type="line"/>
      <point x="60" y="79" type="line"/>
    </contour>
  </outline>
</glyph>
<glyph name="uniA4F2" format="2">
  <advance width="285"/>
  <unicode hex="A4F2"/>
  <outline>
    <contour>
      <point x="98" y="0" type="line"/>
      <point x="187" y="0" type="line"/>
      <point x="187" y="714" type="line"/>
      <point x="98" y="714" type="line"/>
    </contour>
  </outline>
</glyph>
<glyph name="uniA4F4" format="2">
  <advance width="731"/>
  <unicode hex="A4F4"/>
  <outline>
    <contour>
      <point x="362" y="-10" type="curve" smooth="yes"/>
      <point x="551" y="-10"/>
      <point x="640" y="104"/>
      <point x="640" y="252" type="curve" smooth="yes"/>
      <point x="640" y="714" type="line"/>
      <point x="551" y="714" type="line"/>
      <point x="551" y="252" type="line" smooth="yes"/>
      <point x="551" y="144"/>
      <point x="496" y="68"/>
      <point x="367" y="68" type="curve" smooth="yes"/>
      <point x="242" y="68"/>
      <point x="180" y="135"/>
      <point x="180" y="251" type="curve" smooth="yes"/>
      <point x="180" y="714" type="line"/>
      <point x="90" y="714" type="line"/>
      <point x="90" y="254" type="line" smooth="yes"/>
      <point x="90" y="95"/>
      <point x="184" y="-10"/>
    </contour>
  </outline>
</glyph>
<glyph name="uniA4F5" format="2">
  <advance width="731"/>
  <unicode hex="A4F5"/>
  <outline>
    <contour>
      <point x="90" y="0" type="line"/>
      <point x="180" y="0" type="line"/>
      <point x="180" y="463" type="line" smooth="yes"/>
      <point x="180" y="579"/>
      <point x="242" y="646"/>
      <point x="367" y="646" type="curve" smooth="yes"/>
      <point x="496" y="646"/>
      <point x="551" y="570"/>
      <point x="551" y="462" type="curve" smooth="yes"/>
      <point x="551" y="0" type="line"/>
      <point x="640" y="0" type="line"/>
      <point x="640" y="462" type="line" smooth="yes"/>
      <point x="640" y="610"/>
      <point x="551" y="724"/>
      <point x="362" y="724" type="curve" smooth="yes"/>
      <point x="184" y="724"/>
      <point x="90" y="619"/>
      <point x="90" y="460" type="curve" smooth="yes"/>
    </contour>
  </outline>
</glyph>
<glyph name="uniA4F6" format="2">
  <advance width="524"/>
  <unicode hex="A4F6"/>
  <outline>
    <contour>
      <point x="337" y="0" type="line"/>
      <point x="427" y="0" type="line"/>
      <point x="427" y="714" type="line"/>
      <point x="25" y="714" type="line"/>
      <point x="25" y="634" type="line"/>
      <point x="337" y="634" type="line"/>
    </contour>
  </outline>
</glyph>
<glyph name="uniA4F7" format="2">
  <advance width="730"/>
  <unicode hex="A4F7"/>
  <outline>
    <contour>
      <point x="434" y="0" type="curve" smooth="yes"/>
      <point x="633" y="0" type="line"/>
      <point x="633" y="714" type="line"/>
      <point x="413" y="714" type="line" smooth="yes"/>
      <point x="198" y="714"/>
      <point x="61" y="593"/>
      <point x="61" y="364" type="curve" smooth="yes"/>
      <point x="61" y="123"/>
      <point x="199" y="0"/>
    </contour>
    <contour>
      <point x="446" y="77" type="line" smooth="yes"/>
      <point x="253" y="77"/>
      <point x="156" y="173"/>
      <point x="156" y="361" type="curve" smooth="yes"/>
      <point x="156" y="551"/>
      <point x="254" y="637"/>
      <point x="426" y="637" type="curve" smooth="yes"/>
      <point x="543" y="637" type="line"/>
      <point x="543" y="77" type="line"/>
    </contour>
  </outline>
</glyph>
<glyph name="uniA4F8" format="2">
  <advance width="300"/>
  <unicode hex="A4F8"/>
  <outline>
    <contour>
      <point x="149" y="-10" type="curve" smooth="yes"/>
      <point x="183" y="-10"/>
      <point x="212" y="10"/>
      <point x="212" y="58" type="curve" smooth="yes"/>
      <point x="212" y="107"/>
      <point x="183" y="125"/>
      <point x="149" y="125" type="curve" smooth="yes"/>
      <point x="115" y="125"/>
      <point x="88" y="107"/>
      <point x="88" y="58" type="curve" smooth="yes"/>
      <point x="88" y="10"/>
      <point x="115" y="-10"/>
    </contour>
  </outline>
</glyph>
<glyph name="uniA4F9" format="2">
  <advance width="303"/>
  <unicode hex="A4F9"/>
  <outline>
    <contour>
      <point x="78" y="-150" type="line"/>
      <point x="166" y="-135"/>
      <point x="215" y="-45"/>
      <point x="215" y="58" type="curve" smooth="yes"/>
      <point x="215" y="107"/>
      <point x="183" y="125"/>
      <point x="149" y="125" type="curve" smooth="yes"/>
      <point x="115" y="125"/>
      <point x="88" y="107"/>
      <point x="88" y="58" type="curve" smooth="yes"/>
      <point x="88" y="10"/>
      <point x="115" y="-10"/>
      <point x="149" y="-10" type="curve" smooth="yes"/>
      <point x="151" y="-10"/>
      <point x="154" y="-10"/>
      <point x="156" y="-10" type="curve"/>
      <point x="146" y="-55"/>
      <point x="121" y="-88"/>
      <point x="78" y="-103" type="curve"/>
    </contour>
  </outline>
</glyph>
<glyph name="uniA4FA" format="2">
  <advance width="490"/>
  <unicode hex="A4FA"/>
  <outline>
    <contour>
      <point x="339" y="-10" type="curve" smooth="yes"/>
      <point x="374" y="-10"/>
      <point x="402" y="10"/>
      <point x="402" y="58" type="curve" smooth="yes"/>
      <point x="402" y="107"/>
      <point x="374" y="125"/>
      <point x="339" y="125" type="curve" smooth="yes"/>
      <point x="306" y="125"/>
      <point x="278" y="107"/>
      <point x="278" y="58" type="curve" smooth="yes"/>
      <point x="278" y="10"/>
      <point x="306" y="-10"/>
    </contour>
    <contour>
      <point x="149" y="-10" type="curve" smooth="yes"/>
      <point x="183" y="-10"/>
      <point x="212" y="10"/>
      <point x="212" y="58" type="curve" smooth="yes"/>
      <point x="212" y="107"/>
      <point x="183" y="125"/>
      <point x="149" y="125" type="curve" smooth="yes"/>
      <point x="115" y="125"/>
      <point x="88" y="107"/>
      <point x="88" y="58" type="curve" smooth="yes"/>
      <point x="88" y="10"/>
      <point x="115" y="-10"/>
    </contour>
  </outline>
</glyph>
<glyph name="uniA4FB" format="2">
  <advance width="493"/>
  <unicode hex="A4FB"/>
  <outline>
    <contour>
      <point x="149" y="-10" type="curve" smooth="yes"/>
      <point x="183" y="-10"/>
      <point x="212" y="10"/>
      <point x="212" y="58" type="curve" smooth="yes"/>
      <point x="212" y="107"/>
      <point x="183" y="125"/>
      <point x="149" y="125" type="curve" smooth="yes"/>
      <point x="115" y="125"/>
      <point x="88" y="107"/>
      <point x="88" y="58" type="curve" smooth="yes"/>
      <point x="88" y="10"/>
      <point x="115" y="-10"/>
    </contour>
    <contour>
      <point x="269" y="-150" type="line"/>
      <point x="356" y="-135"/>
      <point x="405" y="-45"/>
      <point x="405" y="58" type="curve" smooth="yes"/>
      <point x="405" y="107"/>
      <point x="374" y="125"/>
      <point x="339" y="125" type="curve" smooth="yes"/>
      <point x="306" y="125"/>
      <point x="278" y="107"/>
      <point x="278" y="58" type="curve" smooth="yes"/>
      <point x="278" y="10"/>
      <point x="306" y="-10"/>
      <point x="339" y="-10" type="curve" smooth="yes"/>
      <point x="342" y="-10"/>
      <point x="344" y="-10"/>
      <point x="347" y="-10" type="curve"/>
      <point x="337" y="-55"/>
      <point x="311" y="-88"/>
      <point x="269" y="-103" type="curve"/>
    </contour>
  </outline>
</glyph>
<glyph name="uniA4FC" format="2">
  <advance width="303"/>
  <unicode hex="A4FC"/>
  <outline>
    <contour>
      <point x="149" y="410" type="curve" smooth="yes"/>
      <point x="184" y="410"/>
      <point x="212" y="430"/>
      <point x="212" y="478" type="curve" smooth="yes"/>
      <point x="212" y="528"/>
      <point x="184" y="546"/>
      <point x="149" y="546" type="curve" smooth="yes"/>
      <point x="115" y="546"/>
      <point x="88" y="528"/>
      <point x="88" y="478" type="curve" smooth="yes"/>
      <point x="88" y="430"/>
      <point x="115" y="410"/>
    </contour>
    <contour>
      <point x="78" y="-150" type="line"/>
      <point x="166" y="-135"/>
      <point x="215" y="-45"/>
      <point x="215" y="58" type="curve" smooth="yes"/>
      <point x="215" y="107"/>
      <point x="183" y="125"/>
      <point x="149" y="125" type="curve" smooth="yes"/>
      <point x="115" y="125"/>
      <point x="88" y="107"/>
      <point x="88" y="58" type="curve" smooth="yes"/>
      <point x="88" y="10"/>
      <point x="115" y="-10"/>
      <point x="149" y="-10" type="curve" smooth="yes"/>
      <point x="151" y="-10"/>
      <point x="154" y="-10"/>
      <point x="156" y="-10" type="curve"/>
      <point x="146" y="-55"/>
      <point x="121" y="-88"/>
      <point x="78" y="-103" type="curve"/>
    </contour>
  </outline>
</glyph>
<glyph name="uniA4FD" format="2">
  <advance width="300"/>
  <unicode hex="A4FD"/>
  <outline>
    <contour>
      <point x="149" y="410" type="curve" smooth="yes"/>
      <point x="183" y="410"/>
      <point x="212" y="430"/>
      <point x="212" y="478" type="curve" smooth="yes"/>
      <point x="212" y="528"/>
      <point x="183" y="546"/>
      <point x="149" y="546" type="curve" smooth="yes"/>
      <point x="115" y="546"/>
      <point x="88" y="528"/>
      <point x="88" y="478" type="curve" smooth="yes"/>
      <point x="88" y="430"/>
      <point x="115" y="410"/>
    </contour>
    <contour>
      <point x="149" y="-10" type="curve" smooth="yes"/>
      <point x="183" y="-10"/>
      <point x="212" y="10"/>
      <point x="212" y="58" type="curve" smooth="yes"/>
      <point x="212" y="107"/>
      <point x="183" y="125"/>
      <point x="149" y="125" type="curve" smooth="yes"/>
      <point x="115" y="125"/>
      <point x="88" y="107"/>
      <point x="88" y="58" type="curve" smooth="yes"/>
      <point x="88" y="10"/>
      <point x="115" y="-10"/>
    </contour>
  </outline>
</glyph>
<glyph name="uniA4FE" format="2">
  <advance width="633"/>
  <unicode hex="A4FE"/>
  <outline>
    <contour>
      <point x="73" y="328" type="line"/>
      <point x="399" y="328" type="line"/>
      <point x="399" y="414" type="line"/>
      <point x="73" y="414" type="line"/>
    </contour>
    <contour>
      <point x="497" y="74" type="curve" smooth="yes"/>
      <point x="531" y="74"/>
      <point x="560" y="94"/>
      <point x="560" y="142" type="curve" smooth="yes"/>
      <point x="560" y="191"/>
      <point x="531" y="209"/>
      <point x="497" y="209" type="curve" smooth="yes"/>
      <point x="463" y="209"/>
      <point x="436" y="191"/>
      <point x="436" y="142" type="curve" smooth="yes"/>
      <point x="436" y="94"/>
      <point x="463" y="74"/>
    </contour>
  </outline>
</glyph>
<glyph name="uniA4FF" format="2">
  <advance width="546"/>
  <unicode hex="A4FF"/>
  <outline>
    <contour>
      <point x="73" y="328" type="line"/>
      <point x="473" y="328" type="line"/>
      <point x="473" y="414" type="line"/>
      <point x="73" y="414" type="line"/>
    </contour>
    <contour>
      <point x="73" y="123" type="line"/>
      <point x="473" y="123" type="line"/>
      <point x="473" y="208" type="line"/>
      <point x="73" y="208" type="line"/>
    </contour>
  </outline>
</glyph>
